<?xml version="1.0" encoding="utf-8"?>
<!-- Generator: Adobe Illustrator 19.2.0, SVG Export Plug-In . SVG Version: 6.00 Build 0)  -->
<svg version="1.1" xmlns="http://www.w3.org/2000/svg" xmlns:xlink="http://www.w3.org/1999/xlink" x="0px" y="0px"
	 viewBox="0 0 290 290" style="enable-background:new 0 0 290 290;" xml:space="preserve">
<style type="text/css">
	.st2{fill:#ffffff;}
</style>
<g id="about">
	<g>
		<path class="st2" d="M64.7,175.1l5.8-60.1h20.4l5.7,60.1H85.2l-0.8-9.7h-7.3l-0.7,9.7H64.7z M78,155.7h5.5l-2.7-30.6h-0.6
			L78,155.7z"/>
		<path class="st2" d="M100.2,114.9h16.3c4.4,0,7.6,1.1,9.6,3.2c2,2.1,3,5.6,3,10.5v2.7c0,5.7-2.1,9.2-6.2,10.3
			c2.5,0.7,4.3,2.2,5.3,4.5c1,2.4,1.5,5.5,1.5,9.5c0,6.4-1,11.2-2.9,14.5c-1.9,3.3-5.4,4.9-10.4,4.9h-16.3V114.9z M114.4,137.5
			c1,0,1.7-0.4,2.1-1.2c0.4-0.8,0.6-1.9,0.6-3.3v-6c0-2-0.9-2.9-2.6-2.9H112v13.4H114.4z M117.9,160v-7.5c0-1.8-0.3-3.2-0.8-4.1
			c-0.5-0.9-1.5-1.4-2.8-1.4H112v17.4l1.2,0.1C116.3,164.5,117.9,163,117.9,160z"/>
		<path class="st2" d="M137.1,171.2c-2.5-3-3.8-7.1-3.8-12.5v-28.6c0-5.2,1.3-9.1,3.8-11.7c2.5-2.6,6.2-4,11.1-4s8.5,1.3,11.1,4
			c2.5,2.6,3.8,6.5,3.8,11.7v28.6c0,5.4-1.3,9.6-3.8,12.5c-2.5,2.9-6.2,4.4-11.1,4.4S139.6,174.1,137.1,171.2z M150.3,163.2
			c0.4-0.9,0.6-2.2,0.6-3.9v-29.4c0-1.3-0.2-2.4-0.5-3.2c-0.3-0.8-1.1-1.2-2.1-1.2c-2,0-3,1.5-3,4.5v29.3c0,1.7,0.2,3,0.6,3.9
			c0.4,0.9,1.2,1.3,2.3,1.3C149.2,164.6,149.9,164.1,150.3,163.2z"/>
		<path class="st2" d="M170.7,171.4c-2.4-2.8-3.6-7-3.6-12.5v-44h11.7v43.5c0,1.9,0.2,3.4,0.6,4.5c0.4,1.1,1.2,1.6,2.4,1.6
			c1.2,0,2-0.5,2.4-1.6c0.4-1,0.6-2.6,0.6-4.5v-43.5h11.7v44c0,5.5-1.2,9.7-3.6,12.5c-2.4,2.8-6.1,4.2-11,4.2
			C176.8,175.6,173.1,174.2,170.7,171.4z"/>
		<path class="st2" d="M206.1,175.1v-48.6H199v-11.5h26.3v11.5h-7.1v48.6H206.1z"/>
	</g>
</g>
</svg>
