<?xml version="1.0" encoding="utf-8"?>
<!-- Generator: Adobe Illustrator 19.2.0, SVG Export Plug-In . SVG Version: 6.00 Build 0)  -->
<svg version="1.1" xmlns="http://www.w3.org/2000/svg" xmlns:xlink="http://www.w3.org/1999/xlink" x="0px" y="0px"
	 viewBox="0 0 290 290" style="enable-background:new 0 0 290 290;" xml:space="preserve">
<style type="text/css">
	.st2{fill:#ffffff;}
</style>
<g id="hardware">
	<g>
		<path class="st2" d="M114.9,6.3h60.1v12h-21.5V24h21.5v12h-60.1V24h27.3v-5.7h-27.3V6.3z"/>
		<path class="st2" d="M114.9,39.7l60.1,5.8v20.4l-60.1,5.7V60.2l9.7-0.8V52l-9.7-0.7V39.7z M134.3,53v5.5l30.6-2.7v-0.6L134.3,53z"/>
		<path class="st2" d="M175.1,75.2v18.5c0,2.9-0.7,5.2-2,6.8c-1.3,1.6-3.2,2.7-5.6,3.3c-2.4,0.6-5.5,0.8-9.2,0.8c-3.4,0-6.1-0.4-8-1.3
			c-1.9-0.9-3.2-2.4-4-4.6c-0.4,1.8-1.3,3.1-2.7,4c-1.4,0.8-3.4,1.2-5.9,1.2l-22.8-0.1V91.9h23.5c1.7,0,2.8-0.3,3.2-1
			c0.5-0.7,0.7-1.8,0.7-3.6h-27.4V75.2H175.1z M152.8,90.3c0,1.7,1.8,2.5,5.5,2.5c1.6,0,2.8-0.1,3.6-0.2c0.8-0.1,1.3-0.4,1.6-0.8
			c0.3-0.4,0.5-0.9,0.5-1.6v-2.8h-11.1V90.3z"/>
		<path class="st2" d="M175.1,108.6v16.6c0,4.3-1.2,7.5-3.6,9.7c-2.4,2.1-5.9,3.2-10.6,3.3l-28.1,0.1c-5.9,0-10.4-1-13.4-3.1
			c-3-2.1-4.5-5.6-4.5-10.4v-16.2H175.1z M125.6,122.8c0,2.2,1.1,3.3,3.2,3.3h31c1.4,0,2.4-0.1,3-0.3c0.7-0.2,1.1-0.6,1.4-1.2
			c0.2-0.6,0.3-1.4,0.3-2.6v-1.3h-39V122.8z"/>
		<path class="st2" d="M114.9,147.8l60.1-6.4v11.8l-37.9,3.4l37.9,3.4V171l-37.9,3.2l37.9,3.2v11.9l-60.1-6.6v-14.4l29-3l-29-2.9V147.8z"/>
		<path class="st2" d="M114.9,189.9l60.1,5.8v20.4l-60.1,5.7v-11.4l9.7-0.8v-7.3l-9.7-0.7V189.9z M134.3,203.2v5.5l30.6-2.7v-0.6L134.3,203.2z"
			/>
		<path class="st2" d="M175.1,225.4v18.5c0,2.9-0.7,5.2-2,6.8c-1.3,1.6-3.2,2.7-5.6,3.3c-2.4,0.6-5.5,0.8-9.2,0.8c-3.4,0-6.1-0.4-8-1.3
			c-1.9-0.9-3.2-2.4-4-4.6c-0.4,1.8-1.3,3.1-2.7,4c-1.4,0.8-3.4,1.2-5.9,1.2l-22.8-0.1v-11.8h23.5c1.7,0,2.8-0.3,3.2-1
			c0.5-0.7,0.7-1.8,0.7-3.6h-27.4v-12.2H175.1z M152.8,240.5c0,1.7,1.8,2.5,5.5,2.5c1.6,0,2.8-0.1,3.6-0.2c0.8-0.1,1.3-0.4,1.6-0.8
			c0.3-0.4,0.5-0.9,0.5-1.6v-2.8h-11.1V240.5z"/>
		<path class="st2" d="M114.9,258.8h60.1v24.1h-11.6v-11.8h-11.7v11.3h-11.3v-11.3h-13.8v12.6h-11.7V258.8z"/>
	</g>
</g>
</svg>
