<?xml version="1.0" encoding="utf-8"?>
<!-- Generator: Adobe Illustrator 19.2.0, SVG Export Plug-In . SVG Version: 6.00 Build 0)  -->
<svg version="1.1" xmlns="http://www.w3.org/2000/svg" xmlns:xlink="http://www.w3.org/1999/xlink" x="0px" y="0px"
	 viewBox="0 0 290 290" style="enable-background:new 0 0 290 290;" xml:space="preserve">
<style type="text/css">
	.st2{fill:#ffffff;}
</style>
<g id="materials">
	<g>
		<path class="st2" d="M286,114.9v60.1h-18.3l-5-36.7l-5,36.7h-18.5v-60.1h11v43.3l6.9-43.3h10.8l7.4,43.3v-43.3H286z"/>
		<path class="st2" d="M235.4,114.9l-5.8,60.1h-20.4l-5.7-60.1h11.4l0.8,9.7h7.3l0.7-9.7H235.4z M222.1,134.3h-5.5l2.7,30.6h0.6
			L222.1,134.3z"/>
		<path class="st2" d="M194.7,114.9v48.6h7.1v11.5h-26.3v-11.5h7.1v-48.6H194.7z"/>
		<path class="st2" d="M172.1,114.9v60.1H148v-11.6h11.8v-11.7h-11.3v-11.3h11.3v-13.8h-12.6v-11.7H172.1z"/>
		<path class="st2" d="M143.3,175.1h-18.5c-2.9,0-5.2-0.7-6.8-2c-1.6-1.3-2.7-3.2-3.3-5.6c-0.6-2.4-0.8-5.5-0.8-9.2
			c0-3.4,0.4-6.1,1.3-8c0.9-1.9,2.4-3.2,4.6-4c-1.8-0.4-3.1-1.3-4-2.7c-0.8-1.4-1.2-3.4-1.2-5.9l0.1-22.8h11.8v23.5
			c0,1.7,0.3,2.8,1,3.2c0.7,0.5,1.8,0.7,3.6,0.7v-27.4h12.2V175.1z M128.2,152.8c-1.7,0-2.5,1.8-2.5,5.5c0,1.6,0.1,2.8,0.2,3.6
			c0.1,0.8,0.4,1.3,0.8,1.6c0.4,0.3,0.9,0.5,1.6,0.5h2.8v-11.1H128.2z"/>
		<path class="st2" d="M110.5,114.9v60.1H98.8v-60.1H110.5z"/>
		<path class="st2" d="M95.6,114.9l-5.8,60.1H69.4l-5.7-60.1h11.4l0.8,9.7h7.3l0.7-9.7H95.6z M82.3,134.3h-5.5l2.7,30.6h0.6
			L82.3,134.3z"/>
		<path class="st2" d="M60.1,114.9v60.1H48v-49.9H35.6v-10.2H60.1z"/>
		<path class="st2" d="M29.8,118.4c2.4,2.7,3.6,7.1,3.6,13.1v5.9H21.6v-7.5c0-3-1-4.5-2.9-4.5c-1.1,0-1.8,0.3-2.2,0.9
			s-0.6,1.7-0.6,3.2c0,2,0.2,3.6,0.7,4.9c0.5,1.3,1.1,2.4,1.8,3.2c0.7,0.9,2,2.2,3.9,4l5.2,5.2c4,3.9,6,8.3,6,13
			c0,5.1-1.2,9-3.5,11.7c-2.4,2.7-5.8,4-10.3,4c-5.4,0-9.3-1.4-11.7-4.3c-2.4-2.9-3.6-7.4-3.6-13.5h12.2l0.1,4.1
			c0,0.8,0.2,1.4,0.7,1.9c0.4,0.5,1.1,0.7,1.9,0.7c0.9,0,1.6-0.3,2.1-0.8c0.5-0.5,0.7-1.2,0.7-2.1c0-2-1.1-4-3.4-6.1l-7-6.7
			c-1.6-1.6-3-3.1-4.1-4.5c-1.1-1.4-1.9-3.1-2.6-5c-0.7-1.9-1-4.2-1-6.9c0-5.9,1.1-10.4,3.3-13.5c2.2-3.1,5.8-4.6,10.7-4.6
			C23.4,114.4,27.4,115.7,29.8,118.4z"/>
	</g>
</g>
</svg>
