<?xml version="1.0" encoding="utf-8"?>
<!-- Generator: Adobe Illustrator 19.2.0, SVG Export Plug-In . SVG Version: 6.00 Build 0)  -->
<svg version="1.1" xmlns="http://www.w3.org/2000/svg" xmlns:xlink="http://www.w3.org/1999/xlink" x="0px" y="0px"
	 viewBox="0 0 290 290" style="enable-background:new 0 0 290 290;" xml:space="preserve">
<style type="text/css">
	.st2{fill:#ffffff;}
</style>
<g id="Layer_2">
	<g>
		<path class="st2" d="M44.1,128.7c-0.8,1-1.9,1.8-3.3,2.4c-1.4,0.6-2.8,0.9-4.1,0.9v-9.6c2.1-0.3,4.1-1.1,6.1-2.5
			c2-1.3,3.5-3,4.4-5.1h9.7v60.2H44.1V128.7z"/>
		<path class="st2" d="M67.3,128.7c-0.8,1-1.9,1.8-3.3,2.4c-1.4,0.6-2.8,0.9-4.1,0.9v-9.6c2.1-0.3,4.1-1.1,6.1-2.5
			c2-1.3,3.5-3,4.4-5.1H80v60.2H67.3V128.7z"/>
		<path class="st2" d="M87.7,171.3c-2.8-2.9-4.1-7-4.1-12.3v-27.2c0-5.7,1.3-10,4-13c2.7-3,6.6-4.5,11.9-4.5c5.3,0,9.3,1.5,12,4.5
			c2.7,3,4,7.3,4,13V159c0,5.4-1.4,9.5-4.1,12.3c-2.8,2.8-6.7,4.3-11.8,4.3C94.4,175.6,90.5,174.2,87.7,171.3z M101.7,163.3
			c0.6-0.8,0.8-1.8,0.8-2.9v-29.7c0-1.7-0.2-3-0.6-4c-0.4-0.9-1.2-1.4-2.4-1.4c-1.2,0-2,0.5-2.4,1.4c-0.4,0.9-0.6,2.2-0.6,4v29.7
			c0,1.1,0.3,2.1,0.8,2.9c0.5,0.8,1.2,1.2,2.1,1.2C100.4,164.6,101.1,164.2,101.7,163.3z"/>
		<path class="st2" d="M125,128.7c-0.8,1-1.9,1.8-3.3,2.4c-1.4,0.6-2.8,0.9-4.1,0.9v-9.6c2.1-0.3,4.1-1.1,6.1-2.5
			c2-1.3,3.5-3,4.4-5.1h9.7v60.2H125V128.7z"/>
		<path class="st2" d="M145.5,171.3c-2.8-2.9-4.1-7-4.1-12.3v-27.2c0-5.7,1.3-10,4-13c2.7-3,6.6-4.5,11.9-4.5c5.3,0,9.3,1.5,12,4.5
			c2.7,3,4,7.3,4,13V159c0,5.4-1.4,9.5-4.1,12.3c-2.8,2.8-6.7,4.3-11.8,4.3C152.2,175.6,148.2,174.2,145.5,171.3z M159.4,163.3
			c0.6-0.8,0.8-1.8,0.8-2.9v-29.7c0-1.7-0.2-3-0.6-4c-0.4-0.9-1.2-1.4-2.4-1.4c-1.2,0-2,0.5-2.4,1.4c-0.4,0.9-0.6,2.2-0.6,4v29.7
			c0,1.1,0.3,2.1,0.8,2.9c0.5,0.8,1.2,1.2,2.1,1.2C158.1,164.6,158.9,164.2,159.4,163.3z"/>
		<path class="st2" d="M180.1,171.3c-2.8-2.9-4.1-7-4.1-12.3v-27.2c0-5.7,1.3-10,4-13c2.7-3,6.6-4.5,11.9-4.5c5.3,0,9.3,1.5,12,4.5
			c2.7,3,4,7.3,4,13V159c0,5.4-1.4,9.5-4.1,12.3c-2.8,2.8-6.7,4.3-11.8,4.3C186.7,175.6,182.8,174.2,180.1,171.3z M194,163.3
			c0.6-0.8,0.8-1.8,0.8-2.9v-29.7c0-1.7-0.2-3-0.6-4c-0.4-0.9-1.2-1.4-2.4-1.4c-1.2,0-2,0.5-2.4,1.4c-0.4,0.9-0.6,2.2-0.6,4v29.7
			c0,1.1,0.3,2.1,0.8,2.9c0.5,0.8,1.2,1.2,2.1,1.2C192.7,164.6,193.4,164.2,194,163.3z"/>
		<path class="st2" d="M217.4,128.7c-0.8,1-1.9,1.8-3.3,2.4c-1.4,0.6-2.8,0.9-4.1,0.9v-9.6c2.1-0.3,4.1-1.1,6.1-2.5
			c2-1.3,3.5-3,4.4-5.1h9.7v60.2h-12.7V128.7z"/>
		<path class="st2" d="M240.5,128.7c-0.8,1-1.9,1.8-3.3,2.4c-1.4,0.6-2.8,0.9-4.1,0.9v-9.6c2.1-0.3,4.1-1.1,6.1-2.5
			c2-1.3,3.5-3,4.4-5.1h9.7v60.2h-12.7V128.7z"/>
	</g>
</g>
</svg>
