<?xml version="1.0" encoding="utf-8"?>
<!-- Generator: Adobe Illustrator 19.2.0, SVG Export Plug-In . SVG Version: 6.00 Build 0)  -->
<svg version="1.1" xmlns="http://www.w3.org/2000/svg" xmlns:xlink="http://www.w3.org/1999/xlink" x="0px" y="0px"
	 viewBox="0 0 290 290" style="enable-background:new 0 0 290 290;" xml:space="preserve">
<style type="text/css">
	.st2{fill:#ffffff;}
</style>
<g id="still-motion">
	<g>
		<path class="st2" d="M38.6,289c-3.6-0.2-7.6-2.4-11.8-6.7l-4.2-4.2l8.4-8.4l5.3,5.3c2.1,2.1,3.8,2.5,5.2,1.1
			c0.8-0.8,1.1-1.5,0.9-2.3c-0.1-0.7-0.8-1.6-1.8-2.7c-1.4-1.4-2.7-2.4-3.9-2.9c-1.2-0.6-2.4-0.9-3.5-1s-3-0.1-5.6-0.1h-7.3
			c-5.6,0.1-10.1-1.6-13.5-4.9c-3.6-3.6-5.6-7.2-5.8-10.8c-0.2-3.6,1.3-6.9,4.5-10.1c3.8-3.8,7.6-5.6,11.3-5.2s7.7,2.7,12.1,7
			l-8.7,8.7l-3-2.9c-0.6-0.6-1.2-0.8-1.8-0.9c-0.6,0-1.2,0.3-1.8,0.8c-0.7,0.7-1,1.3-0.9,2c0,0.7,0.4,1.4,1,2c1.4,1.4,3.6,2,6.7,1.9
			l9.7-0.2c2.3,0,4.3,0.1,6.1,0.3c1.8,0.2,3.6,0.8,5.4,1.7s3.7,2.3,5.6,4.2c4.2,4.2,6.6,8.1,7.2,11.8c0.6,3.7-0.8,7.3-4.4,10.8
			C46,287.4,42.2,289.2,38.6,289z"/>
		<path class="st2" d="M65.8,266.8l-34.4-34.4l-5,5l-8.2-8.2l18.6-18.6l8.2,8.2l-5,5l34.4,34.4L65.8,266.8z"/>
		<path class="st2" d="M81.4,251.2l-42.5-42.5l8.2-8.2L89.6,243L81.4,251.2z"/>
		<path class="st2" d="M93,239.6l-42.5-42.5l8.5-8.5l35.3,35.3l8.8-8.8l7.2,7.2L93,239.6z"/>
		<path class="st2" d="M112.6,219.9l-42.5-42.5l8.5-8.5l35.3,35.3l8.8-8.8l7.2,7.2L112.6,219.9z"/>
		<path class="st2" d="M131.1,201.5l-32.8-52.6l8.8-8.8l32.8,52.7L131.1,201.5z"/>
		<path class="st2" d="M152.3,180.2l-42.5-42.5l13-13l29.5,22.4l-22.4-29.5l13.1-13.1l42.5,42.5l-7.8,7.8l-30.6-30.6l25.7,35.5
			l-7.6,7.6l-35.8-25.4l30.6,30.6L152.3,180.2z"/>
		<path class="st2" d="M188.8,138.2c-3.9-0.3-7.7-2.4-11.5-6.2l-20.2-20.2c-3.7-3.7-5.5-7.3-5.6-11c-0.1-3.6,1.6-7.2,5-10.6
			c3.4-3.4,7-5.1,10.6-5c3.6,0.1,7.3,2,11,5.6l20.2,20.2c3.8,3.8,5.9,7.7,6.2,11.5c0.3,3.9-1.3,7.5-4.7,10.9
			C196.4,137,192.7,138.6,188.8,138.2z M192.5,123.2c-0.4-0.9-1.2-2-2.4-3.2l-20.8-20.8c-0.9-0.9-1.8-1.6-2.6-1.9
			c-0.8-0.3-1.6-0.1-2.4,0.6c-1.4,1.4-1.1,3.2,1.1,5.3l20.7,20.7c1.2,1.2,2.3,2,3.2,2.3c0.9,0.3,1.8,0.1,2.6-0.7
			C192.7,125,192.9,124.1,192.5,123.2z"/>
		<path class="st2" d="M217,115.6l-34.4-34.4l-5,5l-8.2-8.2L188,59.5l8.2,8.2l-5,5l34.3,34.4L217,115.6z"/>
		<path class="st2" d="M232.5,100.1L190,57.5l8.2-8.2l42.5,42.5L232.5,100.1z"/>
		<path class="st2" d="M243.7,83.3c-3.9-0.3-7.7-2.4-11.5-6.2L212,56.9c-3.7-3.7-5.5-7.3-5.6-11c-0.1-3.6,1.6-7.2,5-10.6
			c3.4-3.4,7-5.1,10.6-5c3.6,0.1,7.3,2,11,5.6l20.2,20.2c3.8,3.8,5.9,7.7,6.2,11.5s-1.3,7.5-4.7,10.9
			C251.3,82.1,247.6,83.7,243.7,83.3z M247.4,68.3c-0.4-0.9-1.2-2-2.4-3.2l-20.8-20.8c-0.9-0.9-1.8-1.6-2.6-1.9
			c-0.8-0.3-1.6-0.1-2.4,0.6c-1.4,1.4-1.1,3.2,1.1,5.3l20.7,20.7c1.2,1.2,2.3,2,3.2,2.3c0.9,0.3,1.8,0.1,2.6-0.7
			C247.6,70.1,247.8,69.2,247.4,68.3z"/>
		<path class="st2" d="M268.2,64.4l-42.5-42.5l8.8-8.8l24.3,16.4L238.4,9.2l8.2-8.2l42.5,42.5l-8.3,8.3l-25.5-17L276.5,56
			L268.2,64.4z"/>
	</g>
</g>
</svg>
