<?xml version="1.0" encoding="utf-8"?>
<!-- Generator: Adobe Illustrator 19.2.0, SVG Export Plug-In . SVG Version: 6.00 Build 0)  -->
<svg version="1.1" xmlns="http://www.w3.org/2000/svg" xmlns:xlink="http://www.w3.org/1999/xlink" x="0px" y="0px"
	 viewBox="0 0 290 290" style="enable-background:new 0 0 290 290;" xml:space="preserve">
<style type="text/css">
	.st2{fill:#ffffff;}
</style>
<g id="web-mobile">
	<g>
		<g>
			<path class="st2" d="M27.6,175.1l-6.4-60.1h11.8l3.4,37.9l3.4-37.9h11.2l3.2,37.9l3.2-37.9h11.9l-6.6,60.1H48.2l-3-29l-2.9,29
				H27.6z"/>
			<path class="st2" d="M77.4,175.1L71,114.9h11.8l3.4,37.9l3.4-37.9h11.2l3.2,37.9l3.2-37.9H119l-6.6,60.1H98l-3-29l-2.9,29H77.4z"
				/>
			<path class="st2" d="M127.3,175.1l-6.4-60.1h11.8l3.4,37.9l3.4-37.9h11.2l3.2,37.9l3.2-37.9h11.9l-6.6,60.1h-14.4l-3-29l-2.9,29
				H127.3z"/>
			<path class="st2" d="M171.6,175.1v-10.2h12.2v10.2H171.6z"/>
			<path class="st2" d="M194.2,164.8v-7.1h-7.1v-7.9h7.1v-7.1h7.9v7.1h7.1v7.9h-7.1v7.1H194.2z"/>
		</g>
		<g>
			<path class="st2" d="M265.7,105.3H224c-1.8,0-3.2,1.5-3.2,3.4v72.6c0,1.9,1.4,3.4,3.2,3.4h41.6c1.8,0,3.2-1.5,3.2-3.4v-72.6
				C268.9,106.8,267.4,105.3,265.7,105.3z M244.8,180.6c-2.2,0-3.9-1.9-3.9-4.2c0-2.3,1.8-4.2,3.9-4.2s3.9,1.9,3.9,4.2
				C248.8,178.8,247,180.6,244.8,180.6z M263.6,167.5h-37.4V111h37.4V167.5z"/>
		</g>
	</g>
</g>
</svg>
