<?xml version="1.0" encoding="utf-8"?>
<!-- Generator: Adobe Illustrator 21.0.0, SVG Export Plug-In . SVG Version: 6.00 Build 0)  -->
<svg version="1.1" id="svg2" xmlns="http://www.w3.org/2000/svg" xmlns:xlink="http://www.w3.org/1999/xlink" x="0px" y="0px"
	 viewBox="0 0 16 16" style="enable-background:new 0 0 16 16;" xml:space="preserve">
<style type="text/css">
	.st0{fill:#FFFFFF;}
	.st1{fill:#FEFEFE;}
</style>
<g>
	<polygon class="st0" points="4,6 5,6 5,7 6,7 7,7 7,8 8,8 9,8 9,7 10,7 11,7 11,6 12,6 12,5 13,5 13,4 12,4 11,4 10,4 9,4 8,4 7,4 
		6,4 5,4 4,4 3,4 3,5 4,5 	"/>
	<polygon class="st0" points="13,5 13,6 12,6 12,7 11,7 11,8 10,8 9,8 9,9 8,9 7,9 7,8 6,8 5,8 5,7 4,7 4,6 3,6 3,5 2,5 2,6 2,7 
		2,8 2,9 2,10 2,11 3,11 3,12 4,12 5,12 6,12 7,12 8,12 9,12 10,12 11,12 12,12 13,12 13,11 14,11 14,10 14,9 14,8 14,7 14,6 14,5 	
		"/>
</g>
<path class="st1" d="M15,1V0h-1h-1h-1h-1h-1H9H8H7H6H5H4H3H2H1v1H0v1v1v1v1v1v1v1v1v1v1v1v1v1v1h1v1h1h1h1h1h1h1h1h1h1h1h1h1h1h1v-1
	h1v-1v-1v-1v-1v-1V9V8V7V6V5V4V3V2V1H15z M15,3v1v1v1v1v1v1v1v1v1v1v1h-1v1h-1h-1h-1h-1H9H8H7H6H5H4H3H2v-1H1v-1v-1v-1v-1V9V8V7V6V5
	V4V3V2h1V1h1h1h1h1h1h1h1h1h1h1h1h1v1h1V3z"/>
</svg>
