<?xml version="1.0" encoding="utf-8"?>
<!-- Generator: Adobe Illustrator 21.0.0, SVG Export Plug-In . SVG Version: 6.00 Build 0)  -->
<svg version="1.1" id="svg2" xmlns="http://www.w3.org/2000/svg" xmlns:xlink="http://www.w3.org/1999/xlink" x="0px" y="0px"
	 viewBox="0 0 16 16" style="enable-background:new 0 0 16 16;" xml:space="preserve">
<style type="text/css">
	.st0{fill:#FFFFFF;}
</style>
<path class="st0" d="M15,1V0h-1h-1h-1h-1h-1H9H8H7H6H5H4H3H2H1v1H0v1v1v1v1v1v1v1v1v1v1v1v1v1v1h1v1h1h1h1h1h1h1h1h1h1h1h1h1h1h1v-1
	h1v-1v-1v-1v-1v-1V9V8V7V6V5V4V3V2V1H15z M15,3v1v1v1v1v1v1v1v1v1v1v1h-1v1h-1h-1h-1h-1H9H8H7H6H5H4H3H2v-1H1v-1v-1v-1v-1V9V8V7V6V5
	V4V3V2h1V1h1h1h1h1h1h1h1h1h1h1h1h1v1h1V3z"/>
<g>
	<polygon class="st0" points="13,6 13,5 12,5 12,4 12,3 12,2 11,2 11,3 11,4 10,4 9,4 8,4 7,4 6,4 5,4 5,3 5,2 4,2 4,3 4,4 4,5 3,5 
		3,6 2,6 2,7 2,8 2,9 3,9 3,10 4,10 4,11 5,11 6,11 6,12 6,13 5,13 4,13 4,14 5,14 6,14 6,15 6,16 7,16 8,16 9,16 10,16 10,15 
		10,14 10,13 10,12 10,11 11,11 12,11 12,10 13,10 13,9 14,9 14,8 14,7 14,6 	"/>
	<rect x="2" y="11" class="st0" width="1" height="1"/>
	<rect x="3" y="12" class="st0" width="1" height="1"/>
</g>
</svg>
