<?xml version="1.0" encoding="utf-8"?>
<!-- Generator: Adobe Illustrator 21.0.0, SVG Export Plug-In . SVG Version: 6.00 Build 0)  -->
<svg version="1.1" id="svg2" xmlns="http://www.w3.org/2000/svg" xmlns:xlink="http://www.w3.org/1999/xlink" x="0px" y="0px"
	 viewBox="0 0 16 16" style="enable-background:new 0 0 16 16;" xml:space="preserve">
<style type="text/css">
	.st0{fill:#FFFFFF;}
</style>
<polygon class="st0" points="13,7 12,7 12,6 11,6 10,6 9,6 9,7 8,7 8,6 7,6 7,7 6,7 6,8 6,9 6,10 6,11 6,12 6,13 7,13 7,14 8,14 
	8,13 9,13 9,12 9,11 9,10 9,9 9,8 10,8 11,8 11,9 11,10 11,11 11,12 11,13 12,13 12,14 13,14 13,13 14,13 14,12 14,11 14,10 14,9 
	14,8 14,7 "/>
<path class="st0" d="M15,1V0h-1h-1h-1h-1h-1H9H8H7H6H5H4H3H2H1v1H0v1v1v1v1v1v1v1v1v1v1v1v1v1v1h1v1h1h1h1h1h1h1h1h1h1h1h1h1h1h1v-1
	h1v-1v-1v-1v-1v-1V9V8V7V6V5V4V3V2V1H15z M15,3v1v1v1v1v1v1v1v1v1v1v1h-1v1h-1h-1h-1h-1H9H8H7H6H5H4H3H2v-1H1v-1v-1v-1v-1V9V8V7V6V5
	V4V3V2h1V1h1h1h1h1h1h1h1h1h1h1h1h1v1h1V3z"/>
<g>
	<polygon class="st0" points="4,3 4,2 3,2 3,3 2,3 2,4 2,5 3,5 4,5 5,5 5,4 5,3 	"/>
	<polygon class="st0" points="3,6 2,6 2,7 2,8 2,9 2,10 2,11 2,12 2,13 3,13 3,14 4,14 4,13 5,13 5,12 5,11 5,10 5,9 5,8 5,7 5,6 
		4,6 	"/>
</g>
</svg>
