<?xml version="1.0" encoding="utf-8"?>
<!-- Generator: Adobe Illustrator 21.0.0, SVG Export Plug-In . SVG Version: 6.00 Build 0)  -->
<svg version="1.1" id="svg2" xmlns="http://www.w3.org/2000/svg" xmlns:xlink="http://www.w3.org/1999/xlink" x="0px" y="0px"
	 viewBox="0 0 16 16" style="enable-background:new 0 0 16 16;" xml:space="preserve">
<style type="text/css">
	.st0{fill:#FFFFFF;}
</style>
<path class="st0" d="M15,1V0h-1h-1h-1h-1h-1H9H8H7H6H5H4H3H2H1v1H0v1v1v1v1v1v1v1v1v1v1v1v1v1v1h1v1h1h1h1h1h1h1h1h1h1h1h1h1h1h1v-1
	h1v-1v-1v-1v-1v-1V9V8V7V6V5V4V3V2V1H15z M15,3v1v1v1v1v1v1v1v1v1v1v1h-1v1h-1h-1h-1h-1H9H8H7H6H5H4H3H2v-1H1v-1v-1v-1v-1V9V8V7V6V5
	V4V3V2h1V1h1h1h1h1h1h1h1h1h1h1h1h1v1h1V3z"/>
<polygon class="st0" points="12,3 11,3 10,3 10,4 9,4 9,5 10,5 10,6 10,7 10,8 9,8 9,9 8,9 7,9 7,8 7,7 7,6 7,5 7,4 6,4 6,3 5,3 
	5,4 4,4 4,5 3,5 3,6 4,6 4,7 5,7 5,8 5,9 5,10 6,10 6,11 6,12 7,12 7,13 8,13 8,12 9,12 9,11 10,11 10,10 11,10 11,9 12,9 12,8 
	12,7 13,7 13,6 13,5 13,4 13,3 "/>
</svg>
