<?xml version="1.0" encoding="utf-8"?>
<!-- Generator: Adobe Illustrator 19.2.0, SVG Export Plug-In . SVG Version: 6.00 Build 0)  -->
<svg version="1.1" xmlns="http://www.w3.org/2000/svg" xmlns:xlink="http://www.w3.org/1999/xlink" x="0px" y="0px"
	 viewBox="0 0 290 290" style="enable-background:new 0 0 290 290;" xml:space="preserve">
<style type="text/css">
	.st0{display:none;}
	.st1{display:inline;}
	.st2{fill:#010101;}
</style>
<g id="Layer_1">
	<g class="st0">
		<path class="st1" d="M114.9,6.3h60.1v12h-21.5V24h21.5v12h-60.1V24h27.3v-5.7h-27.3V6.3z"/>
		<path class="st1" d="M114.9,39.7l60.1,5.8v20.4l-60.1,5.7V60.2l9.7-0.8V52l-9.7-0.7V39.7z M134.3,53v5.5l30.6-2.7v-0.6L134.3,53z"
			/>
		<path class="st1" d="M175.1,75.2v18.5c0,2.9-0.7,5.2-2,6.8c-1.3,1.6-3.2,2.7-5.6,3.3c-2.4,0.6-5.5,0.8-9.2,0.8
			c-3.4,0-6.1-0.4-8-1.3c-1.9-0.9-3.2-2.4-4-4.6c-0.4,1.8-1.3,3.1-2.7,4c-1.4,0.8-3.4,1.2-5.9,1.2l-22.8-0.1V91.9h23.5
			c1.7,0,2.8-0.3,3.2-1c0.5-0.7,0.7-1.8,0.7-3.6h-27.4V75.2H175.1z M152.8,90.3c0,1.7,1.8,2.5,5.5,2.5c1.6,0,2.8-0.1,3.6-0.2
			c0.8-0.1,1.3-0.4,1.6-0.8c0.3-0.4,0.5-0.9,0.5-1.6v-2.8h-11.1V90.3z"/>
		<path class="st1" d="M175.1,108.6v16.6c0,4.3-1.2,7.5-3.6,9.7c-2.4,2.1-5.9,3.2-10.6,3.3l-28.1,0.1c-5.9,0-10.4-1-13.4-3.1
			c-3-2.1-4.5-5.6-4.5-10.4v-16.2H175.1z M125.6,122.8c0,2.2,1.1,3.3,3.2,3.3h31c1.4,0,2.4-0.1,3-0.3c0.7-0.2,1.1-0.6,1.4-1.2
			c0.2-0.6,0.3-1.4,0.3-2.6v-1.3h-39V122.8z"/>
		<path class="st1" d="M114.9,147.8l60.1-6.4v11.8l-37.9,3.4l37.9,3.4V171l-37.9,3.2l37.9,3.2v11.9l-60.1-6.6v-14.4l29-3l-29-2.9
			V147.8z"/>
		<path class="st1" d="M114.9,189.9l60.1,5.8v20.4l-60.1,5.7v-11.4l9.7-0.8v-7.3l-9.7-0.7V189.9z M134.3,203.2v5.5l30.6-2.7v-0.6
			L134.3,203.2z"/>
		<path class="st1" d="M175.1,225.4v18.5c0,2.9-0.7,5.2-2,6.8c-1.3,1.6-3.2,2.7-5.6,3.3c-2.4,0.6-5.5,0.8-9.2,0.8
			c-3.4,0-6.1-0.4-8-1.3c-1.9-0.9-3.2-2.4-4-4.6c-0.4,1.8-1.3,3.1-2.7,4c-1.4,0.8-3.4,1.2-5.9,1.2l-22.8-0.1v-11.8h23.5
			c1.7,0,2.8-0.3,3.2-1c0.5-0.7,0.7-1.8,0.7-3.6h-27.4v-12.2H175.1z M152.8,240.5c0,1.7,1.8,2.5,5.5,2.5c1.6,0,2.8-0.1,3.6-0.2
			c0.8-0.1,1.3-0.4,1.6-0.8c0.3-0.4,0.5-0.9,0.5-1.6v-2.8h-11.1V240.5z"/>
		<path class="st1" d="M114.9,258.8h60.1v24.1h-11.6v-11.8h-11.7v11.3h-11.3v-11.3h-13.8v12.6h-11.7V258.8z"/>
	</g>
</g>
<g id="Layer_2" class="st0">
	<g class="st1">
		<path class="st2" d="M44.1,128.7c-0.8,1-1.9,1.8-3.3,2.4c-1.4,0.6-2.8,0.9-4.1,0.9v-9.6c2.1-0.3,4.1-1.1,6.1-2.5
			c2-1.3,3.5-3,4.4-5.1h9.7v60.2H44.1V128.7z"/>
		<path class="st2" d="M67.3,128.7c-0.8,1-1.9,1.8-3.3,2.4c-1.4,0.6-2.8,0.9-4.1,0.9v-9.6c2.1-0.3,4.1-1.1,6.1-2.5
			c2-1.3,3.5-3,4.4-5.1H80v60.2H67.3V128.7z"/>
		<path class="st2" d="M87.7,171.3c-2.8-2.9-4.1-7-4.1-12.3v-27.2c0-5.7,1.3-10,4-13c2.7-3,6.6-4.5,11.9-4.5c5.3,0,9.3,1.5,12,4.5
			c2.7,3,4,7.3,4,13V159c0,5.4-1.4,9.5-4.1,12.3c-2.8,2.8-6.7,4.3-11.8,4.3C94.4,175.6,90.5,174.2,87.7,171.3z M101.7,163.3
			c0.6-0.8,0.8-1.8,0.8-2.9v-29.7c0-1.7-0.2-3-0.6-4c-0.4-0.9-1.2-1.4-2.4-1.4c-1.2,0-2,0.5-2.4,1.4c-0.4,0.9-0.6,2.2-0.6,4v29.7
			c0,1.1,0.3,2.1,0.8,2.9c0.5,0.8,1.2,1.2,2.1,1.2C100.4,164.6,101.1,164.2,101.7,163.3z"/>
		<path class="st2" d="M125,128.7c-0.8,1-1.9,1.8-3.3,2.4c-1.4,0.6-2.8,0.9-4.1,0.9v-9.6c2.1-0.3,4.1-1.1,6.1-2.5
			c2-1.3,3.5-3,4.4-5.1h9.7v60.2H125V128.7z"/>
		<path class="st2" d="M145.5,171.3c-2.8-2.9-4.1-7-4.1-12.3v-27.2c0-5.7,1.3-10,4-13c2.7-3,6.6-4.5,11.9-4.5c5.3,0,9.3,1.5,12,4.5
			c2.7,3,4,7.3,4,13V159c0,5.4-1.4,9.5-4.1,12.3c-2.8,2.8-6.7,4.3-11.8,4.3C152.2,175.6,148.2,174.2,145.5,171.3z M159.4,163.3
			c0.6-0.8,0.8-1.8,0.8-2.9v-29.7c0-1.7-0.2-3-0.6-4c-0.4-0.9-1.2-1.4-2.4-1.4c-1.2,0-2,0.5-2.4,1.4c-0.4,0.9-0.6,2.2-0.6,4v29.7
			c0,1.1,0.3,2.1,0.8,2.9c0.5,0.8,1.2,1.2,2.1,1.2C158.1,164.6,158.9,164.2,159.4,163.3z"/>
		<path class="st2" d="M180.1,171.3c-2.8-2.9-4.1-7-4.1-12.3v-27.2c0-5.7,1.3-10,4-13c2.7-3,6.6-4.5,11.9-4.5c5.3,0,9.3,1.5,12,4.5
			c2.7,3,4,7.3,4,13V159c0,5.4-1.4,9.5-4.1,12.3c-2.8,2.8-6.7,4.3-11.8,4.3C186.7,175.6,182.8,174.2,180.1,171.3z M194,163.3
			c0.6-0.8,0.8-1.8,0.8-2.9v-29.7c0-1.7-0.2-3-0.6-4c-0.4-0.9-1.2-1.4-2.4-1.4c-1.2,0-2,0.5-2.4,1.4c-0.4,0.9-0.6,2.2-0.6,4v29.7
			c0,1.1,0.3,2.1,0.8,2.9c0.5,0.8,1.2,1.2,2.1,1.2C192.7,164.6,193.4,164.2,194,163.3z"/>
		<path class="st2" d="M217.4,128.7c-0.8,1-1.9,1.8-3.3,2.4c-1.4,0.6-2.8,0.9-4.1,0.9v-9.6c2.1-0.3,4.1-1.1,6.1-2.5
			c2-1.3,3.5-3,4.4-5.1h9.7v60.2h-12.7V128.7z"/>
		<path class="st2" d="M240.5,128.7c-0.8,1-1.9,1.8-3.3,2.4c-1.4,0.6-2.8,0.9-4.1,0.9v-9.6c2.1-0.3,4.1-1.1,6.1-2.5
			c2-1.3,3.5-3,4.4-5.1h9.7v60.2h-12.7V128.7z"/>
	</g>
</g>
<g id="Layer_3" class="st0">
	<g class="st1">
		<path class="st2" d="M38.6,289c-3.6-0.2-7.6-2.4-11.8-6.7l-4.2-4.2l8.4-8.4l5.3,5.3c2.1,2.1,3.8,2.5,5.2,1.1
			c0.8-0.8,1.1-1.5,0.9-2.3c-0.1-0.7-0.8-1.6-1.8-2.7c-1.4-1.4-2.7-2.4-3.9-2.9c-1.2-0.6-2.4-0.9-3.5-1s-3-0.1-5.6-0.1h-7.3
			c-5.6,0.1-10.1-1.6-13.5-4.9c-3.6-3.6-5.6-7.2-5.8-10.8c-0.2-3.6,1.3-6.9,4.5-10.1c3.8-3.8,7.6-5.6,11.3-5.2s7.7,2.7,12.1,7
			l-8.7,8.7l-3-2.9c-0.6-0.6-1.2-0.8-1.8-0.9c-0.6,0-1.2,0.3-1.8,0.8c-0.7,0.7-1,1.3-0.9,2c0,0.7,0.4,1.4,1,2c1.4,1.4,3.6,2,6.7,1.9
			l9.7-0.2c2.3,0,4.3,0.1,6.1,0.3c1.8,0.2,3.6,0.8,5.4,1.7s3.7,2.3,5.6,4.2c4.2,4.2,6.6,8.1,7.2,11.8c0.6,3.7-0.8,7.3-4.4,10.8
			C46,287.4,42.2,289.2,38.6,289z"/>
		<path class="st2" d="M65.8,266.8l-34.4-34.4l-5,5l-8.2-8.2l18.6-18.6l8.2,8.2l-5,5l34.4,34.4L65.8,266.8z"/>
		<path class="st2" d="M81.4,251.2l-42.5-42.5l8.2-8.2L89.6,243L81.4,251.2z"/>
		<path class="st2" d="M93,239.6l-42.5-42.5l8.5-8.5l35.3,35.3l8.8-8.8l7.2,7.2L93,239.6z"/>
		<path class="st2" d="M112.6,219.9l-42.5-42.5l8.5-8.5l35.3,35.3l8.8-8.8l7.2,7.2L112.6,219.9z"/>
		<path class="st2" d="M131.1,201.5l-32.8-52.6l8.8-8.8l32.8,52.7L131.1,201.5z"/>
		<path class="st2" d="M152.3,180.2l-42.5-42.5l13-13l29.5,22.4l-22.4-29.5l13.1-13.1l42.5,42.5l-7.8,7.8l-30.6-30.6l25.7,35.5
			l-7.6,7.6l-35.8-25.4l30.6,30.6L152.3,180.2z"/>
		<path class="st2" d="M188.8,138.2c-3.9-0.3-7.7-2.4-11.5-6.2l-20.2-20.2c-3.7-3.7-5.5-7.3-5.6-11c-0.1-3.6,1.6-7.2,5-10.6
			c3.4-3.4,7-5.1,10.6-5c3.6,0.1,7.3,2,11,5.6l20.2,20.2c3.8,3.8,5.9,7.7,6.2,11.5c0.3,3.9-1.3,7.5-4.7,10.9
			C196.4,137,192.7,138.6,188.8,138.2z M192.5,123.2c-0.4-0.9-1.2-2-2.4-3.2l-20.8-20.8c-0.9-0.9-1.8-1.6-2.6-1.9
			c-0.8-0.3-1.6-0.1-2.4,0.6c-1.4,1.4-1.1,3.2,1.1,5.3l20.7,20.7c1.2,1.2,2.3,2,3.2,2.3c0.9,0.3,1.8,0.1,2.6-0.7
			C192.7,125,192.9,124.1,192.5,123.2z"/>
		<path class="st2" d="M217,115.6l-34.4-34.4l-5,5l-8.2-8.2L188,59.5l8.2,8.2l-5,5l34.3,34.4L217,115.6z"/>
		<path class="st2" d="M232.5,100.1L190,57.5l8.2-8.2l42.5,42.5L232.5,100.1z"/>
		<path class="st2" d="M243.7,83.3c-3.9-0.3-7.7-2.4-11.5-6.2L212,56.9c-3.7-3.7-5.5-7.3-5.6-11c-0.1-3.6,1.6-7.2,5-10.6
			c3.4-3.4,7-5.1,10.6-5c3.6,0.1,7.3,2,11,5.6l20.2,20.2c3.8,3.8,5.9,7.7,6.2,11.5s-1.3,7.5-4.7,10.9
			C251.3,82.1,247.6,83.7,243.7,83.3z M247.4,68.3c-0.4-0.9-1.2-2-2.4-3.2l-20.8-20.8c-0.9-0.9-1.8-1.6-2.6-1.9
			c-0.8-0.3-1.6-0.1-2.4,0.6c-1.4,1.4-1.1,3.2,1.1,5.3l20.7,20.7c1.2,1.2,2.3,2,3.2,2.3c0.9,0.3,1.8,0.1,2.6-0.7
			C247.6,70.1,247.8,69.2,247.4,68.3z"/>
		<path class="st2" d="M268.2,64.4l-42.5-42.5l8.8-8.8l24.3,16.4L238.4,9.2l8.2-8.2l42.5,42.5l-8.3,8.3l-25.5-17L276.5,56
			L268.2,64.4z"/>
	</g>
</g>
<g id="Layer_4" class="st0">
	<g class="st1">
		<path class="st2" d="M286,114.9v60.1h-18.3l-5-36.7l-5,36.7h-18.5v-60.1h11v43.3l6.9-43.3h10.8l7.4,43.3v-43.3H286z"/>
		<path class="st2" d="M235.4,114.9l-5.8,60.1h-20.4l-5.7-60.1h11.4l0.8,9.7h7.3l0.7-9.7H235.4z M222.1,134.3h-5.5l2.7,30.6h0.6
			L222.1,134.3z"/>
		<path class="st2" d="M194.7,114.9v48.6h7.1v11.5h-26.3v-11.5h7.1v-48.6H194.7z"/>
		<path class="st2" d="M172.1,114.9v60.1H148v-11.6h11.8v-11.7h-11.3v-11.3h11.3v-13.8h-12.6v-11.7H172.1z"/>
		<path class="st2" d="M143.3,175.1h-18.5c-2.9,0-5.2-0.7-6.8-2c-1.6-1.3-2.7-3.2-3.3-5.6c-0.6-2.4-0.8-5.5-0.8-9.2
			c0-3.4,0.4-6.1,1.3-8c0.9-1.9,2.4-3.2,4.6-4c-1.8-0.4-3.1-1.3-4-2.7c-0.8-1.4-1.2-3.4-1.2-5.9l0.1-22.8h11.8v23.5
			c0,1.7,0.3,2.8,1,3.2c0.7,0.5,1.8,0.7,3.6,0.7v-27.4h12.2V175.1z M128.2,152.8c-1.7,0-2.5,1.8-2.5,5.5c0,1.6,0.1,2.8,0.2,3.6
			c0.1,0.8,0.4,1.3,0.8,1.6c0.4,0.3,0.9,0.5,1.6,0.5h2.8v-11.1H128.2z"/>
		<path class="st2" d="M110.5,114.9v60.1H98.8v-60.1H110.5z"/>
		<path class="st2" d="M95.6,114.9l-5.8,60.1H69.4l-5.7-60.1h11.4l0.8,9.7h7.3l0.7-9.7H95.6z M82.3,134.3h-5.5l2.7,30.6h0.6
			L82.3,134.3z"/>
		<path class="st2" d="M60.1,114.9v60.1H48v-49.9H35.6v-10.2H60.1z"/>
		<path class="st2" d="M29.8,118.4c2.4,2.7,3.6,7.1,3.6,13.1v5.9H21.6v-7.5c0-3-1-4.5-2.9-4.5c-1.1,0-1.8,0.3-2.2,0.9
			s-0.6,1.7-0.6,3.2c0,2,0.2,3.6,0.7,4.9c0.5,1.3,1.1,2.4,1.8,3.2c0.7,0.9,2,2.2,3.9,4l5.2,5.2c4,3.9,6,8.3,6,13
			c0,5.1-1.2,9-3.5,11.7c-2.4,2.7-5.8,4-10.3,4c-5.4,0-9.3-1.4-11.7-4.3c-2.4-2.9-3.6-7.4-3.6-13.5h12.2l0.1,4.1
			c0,0.8,0.2,1.4,0.7,1.9c0.4,0.5,1.1,0.7,1.9,0.7c0.9,0,1.6-0.3,2.1-0.8c0.5-0.5,0.7-1.2,0.7-2.1c0-2-1.1-4-3.4-6.1l-7-6.7
			c-1.6-1.6-3-3.1-4.1-4.5c-1.1-1.4-1.9-3.1-2.6-5c-0.7-1.9-1-4.2-1-6.9c0-5.9,1.1-10.4,3.3-13.5c2.2-3.1,5.8-4.6,10.7-4.6
			C23.4,114.4,27.4,115.7,29.8,118.4z"/>
	</g>
</g>
<g id="Layer_5" class="st0">
	<g class="st1">
		<g>
			<path class="st2" d="M27.6,175.1l-6.4-60.1h11.8l3.4,37.9l3.4-37.9h11.2l3.2,37.9l3.2-37.9h11.9l-6.6,60.1H48.2l-3-29l-2.9,29
				H27.6z"/>
			<path class="st2" d="M77.4,175.1L71,114.9h11.8l3.4,37.9l3.4-37.9h11.2l3.2,37.9l3.2-37.9H119l-6.6,60.1H98l-3-29l-2.9,29H77.4z"
				/>
			<path class="st2" d="M127.3,175.1l-6.4-60.1h11.8l3.4,37.9l3.4-37.9h11.2l3.2,37.9l3.2-37.9h11.9l-6.6,60.1h-14.4l-3-29l-2.9,29
				H127.3z"/>
			<path class="st2" d="M171.6,175.1v-10.2h12.2v10.2H171.6z"/>
			<path class="st2" d="M194.2,164.8v-7.1h-7.1v-7.9h7.1v-7.1h7.9v7.1h7.1v7.9h-7.1v7.1H194.2z"/>
		</g>
		<g>
			<path class="st2" d="M265.7,105.3H224c-1.8,0-3.2,1.5-3.2,3.4v72.6c0,1.9,1.4,3.4,3.2,3.4h41.6c1.8,0,3.2-1.5,3.2-3.4v-72.6
				C268.9,106.8,267.4,105.3,265.7,105.3z M244.8,180.6c-2.2,0-3.9-1.9-3.9-4.2c0-2.3,1.8-4.2,3.9-4.2s3.9,1.9,3.9,4.2
				C248.8,178.8,247,180.6,244.8,180.6z M263.6,167.5h-37.4V111h37.4V167.5z"/>
		</g>
	</g>
</g>
<g id="Layer_6">
	<g>
		<path class="st2" d="M64.7,175.1l5.8-60.1h20.4l5.7,60.1H85.2l-0.8-9.7h-7.3l-0.7,9.7H64.7z M78,155.7h5.5l-2.7-30.6h-0.6
			L78,155.7z"/>
		<path class="st2" d="M100.2,114.9h16.3c4.4,0,7.6,1.1,9.6,3.2c2,2.1,3,5.6,3,10.5v2.7c0,5.7-2.1,9.2-6.2,10.3
			c2.5,0.7,4.3,2.2,5.3,4.5c1,2.4,1.5,5.5,1.5,9.5c0,6.4-1,11.2-2.9,14.5c-1.9,3.3-5.4,4.9-10.4,4.9h-16.3V114.9z M114.4,137.5
			c1,0,1.7-0.4,2.1-1.2c0.4-0.8,0.6-1.9,0.6-3.3v-6c0-2-0.9-2.9-2.6-2.9H112v13.4H114.4z M117.9,160v-7.5c0-1.8-0.3-3.2-0.8-4.1
			c-0.5-0.9-1.5-1.4-2.8-1.4H112v17.4l1.2,0.1C116.3,164.5,117.9,163,117.9,160z"/>
		<path class="st2" d="M137.1,171.2c-2.5-3-3.8-7.1-3.8-12.5v-28.6c0-5.2,1.3-9.1,3.8-11.7c2.5-2.6,6.2-4,11.1-4s8.5,1.3,11.1,4
			c2.5,2.6,3.8,6.5,3.8,11.7v28.6c0,5.4-1.3,9.6-3.8,12.5c-2.5,2.9-6.2,4.4-11.1,4.4S139.6,174.1,137.1,171.2z M150.3,163.2
			c0.4-0.9,0.6-2.2,0.6-3.9v-29.4c0-1.3-0.2-2.4-0.5-3.2c-0.3-0.8-1.1-1.2-2.1-1.2c-2,0-3,1.5-3,4.5v29.3c0,1.7,0.2,3,0.6,3.9
			c0.4,0.9,1.2,1.3,2.3,1.3C149.2,164.6,149.9,164.1,150.3,163.2z"/>
		<path class="st2" d="M170.7,171.4c-2.4-2.8-3.6-7-3.6-12.5v-44h11.7v43.5c0,1.9,0.2,3.4,0.6,4.5c0.4,1.1,1.2,1.6,2.4,1.6
			c1.2,0,2-0.5,2.4-1.6c0.4-1,0.6-2.6,0.6-4.5v-43.5h11.7v44c0,5.5-1.2,9.7-3.6,12.5c-2.4,2.8-6.1,4.2-11,4.2
			C176.8,175.6,173.1,174.2,170.7,171.4z"/>
		<path class="st2" d="M206.1,175.1v-48.6H199v-11.5h26.3v11.5h-7.1v48.6H206.1z"/>
	</g>
	<g>
	</g>
	<g>
	</g>
	<g>
	</g>
	<g>
	</g>
	<g>
	</g>
	<g>
	</g>
</g>
</svg>
